<?xml version="1.0" encoding="UTF-8"?>
<svg id="_图层_1" xmlns="http://www.w3.org/2000/svg" version="1.1" viewBox="0 0 8 8">
  <!-- Generator: Adobe Illustrator 29.1.0, SVG Export Plug-In . SVG Version: 2.1.0 Build 142)  -->
  <defs>
    <style>
      .st0 {
        fill: #fff;
      }

      .st1 {
        fill: #4ca74f;
      }
    </style>
  </defs>
  <path class="st1" d="M0,4c0,2.2,1.8,4,4,4s4-1.8,4-4S6.2,0,4,0,0,1.8,0,4Z"/>
  <path class="st0" d="M3,1.5c-.1.4-.3.8-.5,1.3v3.9h-.3v-3.4c-.2.4-.5.7-.7,1.1l-.2-.2c.3-.4.6-.8.8-1.3.3-.5.5-1,.6-1.5h.3ZM4.8,2.8c.4,1.1,1,2,1.9,2.9l-.2.3c-.8-.8-1.3-1.5-1.7-2.5v3.2h-.3v-3.2c-.2.5-.4.9-.7,1.3-.3.4-.6.8-1,1.2l-.3-.2c.9-.9,1.4-1.8,1.8-2.9h-1.4v-.3h1.5v-1.2h.3v1.2h1.7v.3h-1.6Z"/>
</svg>