<?xml version="1.0" encoding="UTF-8"?>
<svg id="_图层_1" xmlns="http://www.w3.org/2000/svg" version="1.1" viewBox="0 0 8 8">
  <!-- Generator: Adobe Illustrator 29.1.0, SVG Export Plug-In . SVG Version: 2.1.0 Build 142)  -->
  <defs>
    <style>
      .st0 {
        fill: #4ca74f;
      }
    </style>
  </defs>
  <path class="st0" d="M0,4c0,2.2,1.8,4,4,4s4-1.8,4-4S6.2,0,4,0,0,1.8,0,4ZM4.4,1.5h.7v1.3h1.5v.7h-1.2c0,0,0,.2,0,.2.1.2.2.5.4.7.1.2.3.4.4.6.2.2.3.4.5.5,0,0-.1,0-.2.2,0,0-.1.1-.2.2,0,0-.1.1-.2.2-.2-.2-.3-.4-.5-.6s-.3-.5-.4-.7c0-.1-.1-.3-.2-.4v2.4h-.7v-2.3c-.1.3-.3.6-.5.8-.2.3-.4.6-.7.8,0,0,0-.1-.2-.2,0,0-.1-.1-.2-.2,0,0,0,0-.1-.1v1.2h-.7v-2.9c-.1.2-.3.3-.4.5,0,0,0-.1-.1-.2,0,0-.1-.2-.2-.3s-.1-.2-.2-.2c.2-.2.4-.4.6-.6.2-.2.3-.5.5-.8.2-.3.3-.5.4-.8l.7.2c-.1.3-.3.7-.5,1,0,0,0,.1-.1.2v2.7c.2-.2.4-.4.6-.6.2-.3.4-.6.6-.9,0-.2.2-.3.2-.5h-1.2v-.7h1.4v-1.3Z"/>
</svg>